<svg width="28" height="27" viewBox="0 0 28 27" fill="none" xmlns="http://www.w3.org/2000/svg">
<g clip-path="url(#clip0_5858_63)">
<path d="M0.865934 13.5C0.865934 6.27539 6.71623 0.421875 13.9369 0.421875C21.1575 0.421875 27.0078 6.27539 27.0078 13.5C27.0078 20.7246 21.1575 26.5781 13.9369 26.5781C6.71623 26.5781 0.865934 20.7246 0.865934 13.5ZM13.9369 24.8906C20.193 24.8906 25.3212 19.8229 25.3212 13.5C25.3212 7.24043 20.2563 2.10938 13.9369 2.10938C7.68074 2.10938 2.55251 7.17715 2.55251 13.5C2.55251 19.7596 7.6175 24.8906 13.9369 24.8906ZM14.5957 20.0127L20.6621 13.9482C20.9098 13.7004 20.9098 13.2996 20.6621 13.0518L14.5957 6.9873C14.348 6.73945 13.9474 6.73945 13.6997 6.9873L13.336 7.35117C13.0883 7.59902 13.0883 8.01035 13.3466 8.25293L17.8529 12.6035H7.82305C7.47519 12.6035 7.19058 12.8883 7.19058 13.2363V13.7637C7.19058 14.1117 7.47519 14.3965 7.82305 14.3965H17.8529L13.3413 18.7471C13.0883 18.9949 13.083 19.401 13.3308 19.6488L13.6944 20.0127C13.9474 20.2605 14.348 20.2605 14.5957 20.0127Z" fill="white"/>
</g>
<defs>
<clipPath id="clip0_5858_63">
<rect width="26.9852" height="27" fill="white" transform="matrix(-1 0 0 1 27.4297 0)"/>
</clipPath>
</defs>
</svg>
