<svg width="28" height="27" viewBox="0 0 28 27" fill="none" xmlns="http://www.w3.org/2000/svg">
<g clip-path="url(#clip0_5854_45)">
<path d="M1.10031 13.5C1.10031 6.27539 6.95061 0.421875 14.1712 0.421875C21.3919 0.421875 27.2422 6.27539 27.2422 13.5C27.2422 20.7246 21.3919 26.5781 14.1712 26.5781C6.95061 26.5781 1.10031 20.7246 1.10031 13.5ZM14.1712 24.8906C20.4274 24.8906 25.5556 19.8229 25.5556 13.5C25.5556 7.24043 20.4906 2.10938 14.1712 2.10938C7.91512 2.10938 2.78688 7.17715 2.78688 13.5C2.78688 19.7596 7.85187 24.8906 14.1712 24.8906ZM14.8301 20.0127L20.8965 13.9482C21.1442 13.7004 21.1442 13.2996 20.8965 13.0518L14.8301 6.9873C14.5824 6.73945 14.1818 6.73945 13.9341 6.9873L13.5704 7.35117C13.3227 7.59902 13.3227 8.01035 13.5809 8.25293L18.0873 12.6035H8.05742C7.70957 12.6035 7.42496 12.8883 7.42496 13.2363V13.7637C7.42496 14.1117 7.70957 14.3965 8.05742 14.3965H18.0873L13.5757 18.7471C13.3227 18.9949 13.3174 19.401 13.5651 19.6488L13.9288 20.0127C14.1818 20.2605 14.5824 20.2605 14.8301 20.0127Z" fill="#B26519"/>
</g>
<defs>
<clipPath id="clip0_5854_45">
<rect width="26.9852" height="27" fill="white" transform="matrix(-1 0 0 1 27.6641 0)"/>
</clipPath>
</defs>
</svg>
