<svg width="23" height="22" viewBox="0 0 23 22" fill="none" xmlns="http://www.w3.org/2000/svg">
<g clip-path="url(#clip0_5856_2784)">
<path d="M20.3664 2.35714H18.0106V0.785729C18.0106 0.351776 17.659 0 17.2253 0C16.7916 0 16.44 0.351776 16.44 0.785729V2.35714H7.01662V0.785729C7.01662 0.351776 6.66503 0 6.23136 0C5.7977 0 5.44607 0.351776 5.44607 0.785729V2.35714H3.09022C1.78912 2.35714 0.734375 3.41247 0.734375 4.71428V19.6429C0.734375 20.9447 1.78912 22 3.09022 22H20.3664C21.6675 22 22.7223 20.9447 22.7223 19.6429V4.71428C22.7223 3.41247 21.6675 2.35714 20.3664 2.35714ZM21.1517 19.6429C21.1517 20.0768 20.8001 20.4286 20.3664 20.4286H3.09022C2.65651 20.4286 2.30492 20.0768 2.30492 19.6429V9.42857H21.1517V19.6429ZM21.1517 7.85715H2.30492V4.71428C2.30492 4.28033 2.65651 3.92855 3.09022 3.92855H5.44607V5.49997C5.44607 5.93392 5.79765 6.28569 6.23136 6.28569C6.66508 6.28569 7.01666 5.93392 7.01666 5.49997V3.92855H16.44V5.49997C16.44 5.93392 16.7916 6.28569 17.2253 6.28569C17.6591 6.28569 18.0106 5.93392 18.0106 5.49997V3.92855H20.3665C20.8002 3.92855 21.1518 4.28033 21.1518 4.71428V7.85715H21.1517Z" fill="#89C249"/>
<path d="M7.01991 11H5.44936C5.01565 11 4.66406 11.3518 4.66406 11.7857C4.66406 12.2197 5.01565 12.5715 5.44936 12.5715H7.01991C7.45362 12.5715 7.80521 12.2197 7.80521 11.7857C7.80521 11.3518 7.45362 11 7.01991 11Z" fill="#89C249"/>
<path d="M12.5121 11H10.9415C10.5078 11 10.1562 11.3518 10.1562 11.7857C10.1562 12.2197 10.5078 12.5715 10.9415 12.5715H12.5121C12.9458 12.5715 13.2974 12.2197 13.2974 11.7857C13.2974 11.3518 12.9458 11 12.5121 11Z" fill="#89C249"/>
<path d="M18.0121 11H16.4415C16.0078 11 15.6562 11.3518 15.6562 11.7857C15.6562 12.2197 16.0078 12.5715 16.4415 12.5715H18.0121C18.4458 12.5715 18.7974 12.2197 18.7974 11.7857C18.7973 11.3518 18.4458 11 18.0121 11Z" fill="#89C249"/>
<path d="M7.01991 14.1431H5.44936C5.01565 14.1431 4.66406 14.4948 4.66406 14.9288C4.66406 15.3627 5.01565 15.7145 5.44936 15.7145H7.01991C7.45362 15.7145 7.80521 15.3627 7.80521 14.9288C7.80521 14.4948 7.45362 14.1431 7.01991 14.1431Z" fill="#89C249"/>
<path d="M12.5121 14.1431H10.9415C10.5078 14.1431 10.1562 14.4948 10.1562 14.9288C10.1562 15.3627 10.5078 15.7145 10.9415 15.7145H12.5121C12.9458 15.7145 13.2974 15.3627 13.2974 14.9288C13.2974 14.4948 12.9458 14.1431 12.5121 14.1431Z" fill="#89C249"/>
<path d="M18.0121 14.1431H16.4415C16.0078 14.1431 15.6562 14.4948 15.6562 14.9288C15.6562 15.3627 16.0078 15.7145 16.4415 15.7145H18.0121C18.4458 15.7145 18.7974 15.3627 18.7974 14.9288C18.7973 14.4948 18.4458 14.1431 18.0121 14.1431Z" fill="#89C249"/>
<path d="M7.01991 17.2856H5.44936C5.01565 17.2856 4.66406 17.6374 4.66406 18.0714C4.66406 18.5053 5.01565 18.8571 5.44936 18.8571H7.01991C7.45362 18.8571 7.80521 18.5053 7.80521 18.0713C7.80521 17.6374 7.45362 17.2856 7.01991 17.2856Z" fill="#89C249"/>
<path d="M12.5121 17.2856H10.9415C10.5078 17.2856 10.1562 17.6374 10.1562 18.0714C10.1562 18.5053 10.5078 18.8571 10.9415 18.8571H12.5121C12.9458 18.8571 13.2974 18.5053 13.2974 18.0714C13.2974 17.6374 12.9458 17.2856 12.5121 17.2856Z" fill="#89C249"/>
<path d="M18.0121 17.2856H16.4415C16.0078 17.2856 15.6562 17.6374 15.6562 18.0714C15.6562 18.5053 16.0078 18.8571 16.4415 18.8571H18.0121C18.4458 18.8571 18.7974 18.5053 18.7974 18.0714C18.7974 17.6374 18.4458 17.2856 18.0121 17.2856Z" fill="#89C249"/>
</g>
<defs>
<clipPath id="clip0_5856_2784">
<rect width="21.9879" height="22" fill="white" transform="translate(0.734375)"/>
</clipPath>
</defs>
</svg>
