<svg width="115" height="120" viewBox="0 0 115 120" fill="none" xmlns="http://www.w3.org/2000/svg">
<rect x="4.22656" y="0.5" width="106.56" height="112" rx="53.28" stroke="#6C7188"/>
<g filter="url(#filter0_d_5889_6)">
<rect x="13.2422" y="10" width="88.5229" height="93" rx="44.2615" fill="#89C249"/>
</g>
<g clip-path="url(#clip0_5889_6)">
<path d="M80.8233 57.9061C80.8233 56.7291 80.3778 55.6324 79.6098 54.8236C80.4804 53.8229 80.924 52.4814 80.8028 51.0852C80.5847 48.5961 78.4503 46.6456 75.9414 46.6456H64.4271C64.9975 44.8263 65.9108 41.4913 65.9108 38.8123C65.9108 34.5647 62.4754 30.979 60.3187 30.979C58.3838 30.979 56.9987 32.1246 56.941 32.1716C56.7191 32.3577 56.5905 32.6397 56.5905 32.9373V39.578L51.2202 51.7961L50.9983 51.9155V51.5414C50.9983 51.0009 50.5808 50.5622 50.0663 50.5622H40.7461C38.1756 50.5623 36.0859 52.7576 36.0859 55.4581V71.1248C36.0859 73.8254 38.1756 76.0206 40.7461 76.0206H46.3382C48.3532 76.0206 50.0756 74.6694 50.7243 72.7835C52.2753 73.6217 54.363 74.0623 55.6585 74.0623H72.7688C74.7987 74.0623 76.5752 72.6249 76.9927 70.6431C77.207 69.6208 77.0822 68.5927 76.6572 67.6997C78.0328 66.9731 78.9593 65.4789 78.9593 63.7811C78.9593 63.0878 78.8083 62.4239 78.5231 61.8247C79.8988 61.0962 80.8233 59.6039 80.8233 57.9061ZM76.892 60.3226C76.5323 60.3677 76.2284 60.6242 76.1129 60.9865C75.9992 61.3488 76.0943 61.7463 76.3589 62.0087C76.8324 62.4768 77.0953 63.1074 77.0953 63.7811C77.0953 65.0167 76.2061 66.0547 75.0299 66.1976C74.6702 66.2427 74.3663 66.4992 74.2508 66.8615C74.1371 67.2238 74.2322 67.6213 74.4968 67.8837C75.1101 68.4908 75.3562 69.3427 75.1716 70.2201C74.9424 71.3128 73.932 72.104 72.7688 72.104H55.6585C54.1449 72.104 51.6061 71.3579 50.7262 70.4316C50.4597 70.1535 50.057 70.0713 49.7103 70.2201C49.3618 70.3709 49.1343 70.7293 49.1343 71.1248C49.1343 72.7444 47.8798 74.0623 46.3382 74.0623H40.7461C39.2044 74.0623 37.95 72.7444 37.95 71.1248V55.4581C37.95 53.8385 39.2044 52.5206 40.7461 52.5206H49.1343V53.4998C49.1343 53.8386 49.3021 54.1539 49.5779 54.3341C49.8501 54.5064 50.1931 54.524 50.4839 54.3752L52.3479 53.396C52.5362 53.298 52.6872 53.1335 52.7767 52.9319L58.3688 40.2027C58.4247 40.0734 58.4545 39.9324 58.4545 39.7914V33.468C58.8423 33.2428 59.5153 32.9373 60.3187 32.9373C61.3402 32.9373 64.0468 35.6046 64.0468 38.8123C64.0468 42.259 62.2611 47.2272 62.2443 47.2763C62.1362 47.5759 62.1734 47.9147 62.3468 48.181C62.522 48.4454 62.8091 48.604 63.1147 48.604H75.9414C77.496 48.604 78.8157 49.7731 78.9462 51.2654C79.045 52.3816 78.5342 53.4431 77.619 54.0365C77.3338 54.2205 77.1642 54.5535 77.1772 54.9079C77.1902 55.2623 77.3841 55.5796 77.6824 55.7421C78.4709 56.1632 78.9592 56.9935 78.9592 57.9061C78.9593 59.1417 78.0701 60.1797 76.892 60.3226Z" fill="white"/>
<path d="M50.0649 52.521C49.5504 52.521 49.1328 52.9597 49.1328 53.5002V71.1252C49.1328 71.6657 49.5504 72.1044 50.0649 72.1044C50.5794 72.1044 50.9969 71.6657 50.9969 71.1252V53.5002C50.9969 52.9597 50.5794 52.521 50.0649 52.521Z" fill="white"/>
</g>
<defs>
<filter id="filter0_d_5889_6" x="0.242188" y="1" width="114.523" height="119" filterUnits="userSpaceOnUse" color-interpolation-filters="sRGB">
<feFlood flood-opacity="0" result="BackgroundImageFix"/>
<feColorMatrix in="SourceAlpha" type="matrix" values="0 0 0 0 0 0 0 0 0 0 0 0 0 0 0 0 0 0 127 0" result="hardAlpha"/>
<feOffset dy="4"/>
<feGaussianBlur stdDeviation="6.5"/>
<feColorMatrix type="matrix" values="0 0 0 0 0.117326 0 0 0 0 0.138241 0 0 0 0 0.258333 0 0 0 0.11 0"/>
<feBlend mode="multiply" in2="BackgroundImageFix" result="effect1_dropShadow_5889_6"/>
<feBlend mode="normal" in="SourceGraphic" in2="effect1_dropShadow_5889_6" result="shape"/>
</filter>
<clipPath id="clip0_5889_6">
<rect width="44.7374" height="47" fill="white" transform="translate(36.0859 30)"/>
</clipPath>
</defs>
</svg>
