<svg width="116" height="120" viewBox="0 0 116 120" fill="none" xmlns="http://www.w3.org/2000/svg">
<rect x="4.89062" y="0.5" width="106.56" height="112" rx="53.28" stroke="#6C7188"/>
<g filter="url(#filter0_d_5889_2)">
<rect x="13.9062" y="10" width="88.5229" height="93" rx="44.2615" fill="#89C249"/>
</g>
<g clip-path="url(#clip0_5889_2)">
<path d="M72.28 55.6446V46.1822C72.28 45.9114 72.1609 45.6611 71.9924 45.4632L61.8944 34.3231C61.706 34.1148 61.438 34 61.1704 34H45.1603C42.2047 34 39.8438 36.5322 39.8438 39.6377V71.4428C39.8438 74.5483 42.2047 77.0389 45.1603 77.0389H57.7979C60.1882 81.2073 64.5331 84 69.4826 84C77.0014 84 83.1415 77.5806 83.1415 69.6712C83.1517 62.7621 78.4299 56.9889 72.28 55.6446ZM62.1624 37.6579L68.9372 45.1504H64.5429C63.2335 45.1504 62.1624 44.0147 62.1624 42.6391V37.6579ZM45.1603 74.9546C43.3056 74.9546 41.8278 73.3913 41.8278 71.4428V39.6377C41.8278 37.6785 43.3056 36.0844 45.1603 36.0844H60.1784V42.6391C60.1784 45.1713 62.1326 47.2347 64.5429 47.2347H70.2959V55.3734C69.9986 55.3631 69.7604 55.3318 69.5026 55.3318C66.0407 55.3318 62.8566 56.7284 60.4562 58.9168H47.8586C47.3128 58.9168 46.8666 59.3857 46.8666 59.9586C46.8666 60.532 47.3128 61.0008 47.8586 61.0008H58.6112C57.9068 62.043 57.3215 63.0852 56.8654 64.2315H47.8586C47.3128 64.2315 46.8666 64.7003 46.8666 65.2737C46.8666 65.8466 47.3128 66.3158 47.8586 66.3158H56.2205C55.9725 67.358 55.8436 68.5146 55.8436 69.6712C55.8436 71.5469 56.1908 73.402 56.8157 74.9653H45.1603V74.9546ZM69.4928 81.9263C63.0651 81.9263 57.8374 76.4343 57.8374 69.6815C57.8374 62.9288 63.0549 57.4367 69.4928 57.4367C75.9303 57.4367 81.1477 62.9288 81.1477 69.6815C81.1477 76.4343 75.9205 81.9263 69.4928 81.9263Z" fill="white"/>
<path d="M47.8592 55.7802H57.9074C58.4532 55.7802 58.8994 55.3109 58.8994 54.738C58.8994 54.1646 58.4532 53.6958 57.9074 53.6958H47.8592C47.3134 53.6958 46.8672 54.1646 46.8672 54.738C46.8672 55.3109 47.3134 55.7802 47.8592 55.7802Z" fill="white"/>
<path d="M74.8885 64.9919L67.3893 72.2032L63.7194 68.0139C63.3523 67.5867 62.7172 67.5661 62.3207 67.9514C61.914 68.337 61.8941 69.0042 62.2612 69.4208L66.6057 74.3707C66.804 74.5897 67.0719 74.7045 67.3399 74.7045C67.5778 74.7045 67.816 74.6107 68.0142 74.4333L76.2375 66.5136C76.6441 66.1279 76.6739 65.4607 76.297 65.0442C75.9201 64.6272 75.2952 64.596 74.8885 64.9919Z" fill="white"/>
</g>
<defs>
<filter id="filter0_d_5889_2" x="0.90625" y="1" width="114.523" height="119" filterUnits="userSpaceOnUse" color-interpolation-filters="sRGB">
<feFlood flood-opacity="0" result="BackgroundImageFix"/>
<feColorMatrix in="SourceAlpha" type="matrix" values="0 0 0 0 0 0 0 0 0 0 0 0 0 0 0 0 0 0 127 0" result="hardAlpha"/>
<feOffset dy="4"/>
<feGaussianBlur stdDeviation="6.5"/>
<feColorMatrix type="matrix" values="0 0 0 0 0.117326 0 0 0 0 0.138241 0 0 0 0 0.258333 0 0 0 0.11 0"/>
<feBlend mode="multiply" in2="BackgroundImageFix" result="effect1_dropShadow_5889_2"/>
<feBlend mode="normal" in="SourceGraphic" in2="effect1_dropShadow_5889_2" result="shape"/>
</filter>
<clipPath id="clip0_5889_2">
<rect width="47.593" height="50" fill="white" transform="translate(37.7031 34)"/>
</clipPath>
</defs>
</svg>
