<svg width="116" height="120" viewBox="0 0 116 120" fill="none" xmlns="http://www.w3.org/2000/svg">
<rect x="4.55469" y="0.5" width="106.56" height="112" rx="53.28" stroke="#6C7188"/>
<g filter="url(#filter0_d_5889_7)">
<rect x="13.5703" y="10" width="88.5229" height="93" rx="44.2615" fill="#89C249"/>
</g>
<g clip-path="url(#clip0_5889_7)">
<path d="M83.1612 40.456C82.5446 39.6902 81.681 39.2224 80.7295 39.1389L47.214 36.1989C46.2623 36.1154 45.3371 36.4262 44.608 37.074C43.8819 37.7192 43.4373 38.6218 43.3554 39.6166L42.6811 46.2627H39.9886C38.0176 46.2627 36.4141 47.9474 36.4141 50.0181V72.0592C36.4141 74.1299 38.0176 75.8146 39.9886 75.8146H73.6208C75.5919 75.8146 77.1955 74.1299 77.1955 72.0592V68.4837L78.3889 68.5884C78.4896 68.5972 78.5897 68.6016 78.689 68.6016C80.5265 68.6016 82.093 67.1163 82.2486 65.1585L83.9944 43.1939C84.0738 42.1942 83.7779 41.2219 83.1612 40.456ZM39.9886 48.2158H73.6208C74.5667 48.2158 75.3364 49.0243 75.3364 50.0181V52.0265H38.2732V50.0181C38.2732 49.0243 39.0427 48.2158 39.9886 48.2158ZM38.2732 53.9796H75.3364V58.0312H38.2732V53.9796ZM73.6208 73.8614H39.9886C39.0427 73.8614 38.2732 73.0529 38.2732 72.0592V59.9843H75.3364V72.0592C75.3364 73.0529 74.5667 73.8614 73.6208 73.8614ZM82.1417 43.0313L80.3959 64.9959C80.3172 65.9863 79.4861 66.725 78.5436 66.642L77.1955 66.5238V50.0181C77.1955 47.9474 75.5919 46.2627 73.6208 46.2627H44.5508L45.2051 39.8135C45.2058 39.8061 45.2065 39.7988 45.207 39.7912C45.2857 38.8009 46.1164 38.0622 47.0593 38.1453L80.5749 41.0853C81.0316 41.1253 81.446 41.3498 81.7419 41.7174C82.0378 42.085 82.1798 42.5515 82.1417 43.0313Z" fill="white"/>
<path d="M71.446 62.8877H62.4999C61.9865 62.8877 61.5703 63.3249 61.5703 63.8643V69.996C61.5703 70.5354 61.9865 70.9726 62.4999 70.9726H71.446C71.9594 70.9726 72.3756 70.5354 72.3756 69.996V63.8643C72.3756 63.3249 71.9594 62.8877 71.446 62.8877ZM70.5165 69.0194H63.4294V64.8408H70.5165V69.0194Z" fill="white"/>
</g>
<defs>
<filter id="filter0_d_5889_7" x="0.570312" y="1" width="114.523" height="119" filterUnits="userSpaceOnUse" color-interpolation-filters="sRGB">
<feFlood flood-opacity="0" result="BackgroundImageFix"/>
<feColorMatrix in="SourceAlpha" type="matrix" values="0 0 0 0 0 0 0 0 0 0 0 0 0 0 0 0 0 0 127 0" result="hardAlpha"/>
<feOffset dy="4"/>
<feGaussianBlur stdDeviation="6.5"/>
<feColorMatrix type="matrix" values="0 0 0 0 0.117326 0 0 0 0 0.138241 0 0 0 0 0.258333 0 0 0 0.11 0"/>
<feBlend mode="multiply" in2="BackgroundImageFix" result="effect1_dropShadow_5889_7"/>
<feBlend mode="normal" in="SourceGraphic" in2="effect1_dropShadow_5889_7" result="shape"/>
</filter>
<clipPath id="clip0_5889_7">
<rect width="47.593" height="50" fill="white" transform="translate(36.4141 31)"/>
</clipPath>
</defs>
</svg>
