<svg width="116" height="120" viewBox="0 0 116 120" fill="none" xmlns="http://www.w3.org/2000/svg">
<rect x="4.55469" y="0.5" width="106.56" height="112" rx="53.28" stroke="#6C7188"/>
<g filter="url(#filter0_d_5889_4)">
<rect x="13.5703" y="10" width="88.5229" height="93" rx="44.2615" fill="#89C249"/>
</g>
<path d="M62.4247 46.0169C61.0764 44.6006 58.8942 44.6004 57.5457 46.0169L51.9262 51.9207L50.523 50.4467C49.1802 49.036 47.0031 49.0312 45.655 50.4474C44.3129 51.8575 44.3129 54.1527 45.655 55.5628L51.2768 61.471C51.6869 61.9019 52.3304 61.8887 52.7275 61.466L62.4403 51.1261C63.7682 49.7132 63.7612 47.4212 62.4247 46.0169ZM60.985 49.617L51.9952 59.1835L47.101 54.0418C46.5562 53.4694 46.5562 52.5381 47.101 51.9657C47.6468 51.3923 48.5309 51.3919 49.077 51.9657L51.2031 54.1995C51.6022 54.6187 52.2498 54.619 52.6491 54.1995L58.9916 47.5361C59.5405 46.9592 60.4296 46.9591 60.9785 47.5361C61.5229 48.108 61.5258 49.0415 60.985 49.617Z" fill="white"/>
<path d="M78.7343 71.2266L68.719 62.2052C72.5028 55.2687 71.4137 46.49 66.0044 40.8069C59.3956 33.8642 48.699 33.8635 42.0895 40.807C35.4811 47.7498 35.4801 58.9882 42.0895 65.9319C47.6242 71.747 55.9528 72.6474 62.3601 68.841L70.6077 79.5315C72.7292 82.2812 76.6577 82.5123 79.0542 79.9945C81.3962 77.534 81.2486 73.4912 78.7343 71.2266ZM43.5356 64.4119C37.7263 58.3089 37.7253 48.43 43.5356 42.3258C49.3447 36.2229 58.7482 36.2219 64.5583 42.3258C71.1772 49.2797 70.1303 61.1015 62.0449 66.5358C62.0447 66.5359 62.0445 66.5362 62.0443 66.5363C56.3653 70.3516 48.6276 69.7619 43.5356 64.4119ZM77.6081 78.4751C76.0791 80.0816 73.5607 79.9469 72.1963 78.1785L64.0863 67.6664C65.4374 66.615 66.6285 65.3612 67.5862 64.0147L77.4033 72.8576C79.008 74.3031 79.1204 76.8866 77.6081 78.4751Z" fill="white"/>
<defs>
<filter id="filter0_d_5889_4" x="0.570312" y="1" width="114.523" height="119" filterUnits="userSpaceOnUse" color-interpolation-filters="sRGB">
<feFlood flood-opacity="0" result="BackgroundImageFix"/>
<feColorMatrix in="SourceAlpha" type="matrix" values="0 0 0 0 0 0 0 0 0 0 0 0 0 0 0 0 0 0 127 0" result="hardAlpha"/>
<feOffset dy="4"/>
<feGaussianBlur stdDeviation="6.5"/>
<feColorMatrix type="matrix" values="0 0 0 0 0.117326 0 0 0 0 0.138241 0 0 0 0 0.258333 0 0 0 0.11 0"/>
<feBlend mode="multiply" in2="BackgroundImageFix" result="effect1_dropShadow_5889_4"/>
<feBlend mode="normal" in="SourceGraphic" in2="effect1_dropShadow_5889_4" result="shape"/>
</filter>
</defs>
</svg>
