<svg width="116" height="120" viewBox="0 0 116 120" fill="none" xmlns="http://www.w3.org/2000/svg">
<rect x="4.89062" y="0.5" width="106.56" height="112" rx="53.28" stroke="#6C7188"/>
<g filter="url(#filter0_d_5889_5)">
<rect x="13.9062" y="10" width="88.5229" height="93" rx="44.2615" fill="#89C249"/>
</g>
<g clip-path="url(#clip0_5889_5)">
<path d="M59.6014 43.3047C59.0884 43.3047 58.6719 43.7422 58.6719 44.2812C58.6719 44.8203 59.0884 45.2578 59.6014 45.2578C60.1145 45.2578 60.531 44.8203 60.531 44.2812C60.531 43.7422 60.1145 43.3047 59.6014 43.3047Z" fill="white"/>
<path d="M44.1639 60.8828C44.677 60.8828 45.0935 60.4453 45.0935 59.9062C45.0935 59.3672 44.677 58.9297 44.1639 58.9297C43.6509 58.9297 43.2344 59.3672 43.2344 59.9062C43.2344 60.4453 43.6509 60.8828 44.1639 60.8828Z" fill="white"/>
<path d="M67.0376 33.5391C58.6691 33.5391 51.8006 39.6006 51.2693 47.2357C43.2995 47.6557 35.8047 53.6933 35.8047 61.8594C35.8047 65.272 37.0901 68.5786 39.4299 71.1985C39.8929 73.2035 39.3308 75.3287 37.9361 76.7939C37.6703 77.0732 37.5908 77.4931 37.7346 77.8582C37.8784 78.2229 38.2172 78.4609 38.5933 78.4609C41.2444 78.4609 43.7992 77.3688 45.6975 75.4443C47.5468 76.1065 49.9596 76.5078 52.1648 76.5078C60.5322 76.5078 67.3999 70.4478 67.9326 62.8142C69.8789 62.7234 71.9032 62.3457 73.5048 61.7724C75.4032 63.6969 77.958 64.7891 80.609 64.7891C80.9852 64.7891 81.324 64.551 81.4677 64.1863C81.6115 63.8213 81.532 63.4013 81.2662 63.122C79.8715 61.6568 79.3094 59.5316 79.7724 57.5266C82.1123 54.9067 83.3976 51.6001 83.3976 48.1875C83.3976 39.7025 75.3255 33.5391 67.0376 33.5391ZM52.1648 74.5547C49.9709 74.5547 47.4709 74.1023 45.7963 73.4023C45.4375 73.252 45.0276 73.3508 44.7665 73.6502C43.6441 74.9392 42.1848 75.838 40.5948 76.2511C41.4709 74.4875 41.6946 72.4085 41.1616 70.4386C41.1195 70.2834 41.0414 70.1415 40.9343 70.0259C38.8254 67.7439 37.6638 64.8436 37.6638 61.8594C37.6638 54.9777 44.3043 49.1641 52.1648 49.1641C59.5874 49.1641 66.108 54.5867 66.108 61.8594C66.108 68.8597 59.8532 74.5547 52.1648 74.5547ZM78.2681 56.354C78.1609 56.47 78.0829 56.6119 78.0408 56.7668C77.5077 58.7367 77.7314 60.8157 78.6076 62.5792C77.0175 62.1665 75.5582 61.2673 74.4358 59.9783C74.1748 59.6793 73.7648 59.5801 73.4061 59.7304C71.9547 60.3369 69.8843 60.7569 67.9297 60.8584C67.6581 57.1654 65.9047 53.6944 62.9069 51.1172H75.0317C75.5451 51.1172 75.9612 50.68 75.9612 50.1406C75.9612 49.6012 75.5451 49.1641 75.0317 49.1641H60.0511C57.941 48.0357 55.5718 47.3776 53.1332 47.2395C53.6673 40.6806 59.6996 35.4922 67.0376 35.4922C74.8981 35.4922 81.5385 41.3058 81.5385 48.1875C81.5385 51.1717 80.377 54.0721 78.2681 56.354Z" fill="white"/>
<path d="M59.6028 58.9297H47.8905C47.3771 58.9297 46.9609 59.3669 46.9609 59.9062C46.9609 60.4456 47.3771 60.8828 47.8905 60.8828H59.6028C60.1162 60.8828 60.5324 60.4456 60.5324 59.9062C60.5324 59.3669 60.1162 58.9297 59.6028 58.9297Z" fill="white"/>
<path d="M59.5945 64.7891H44.1639C43.6505 64.7891 43.2344 65.2262 43.2344 65.7656C43.2344 66.305 43.6505 66.7422 44.1639 66.7422H59.5945C60.1079 66.7422 60.524 66.305 60.524 65.7656C60.524 65.2262 60.1079 64.7891 59.5945 64.7891Z" fill="white"/>
<path d="M75.0325 43.3047H63.3202C62.8067 43.3047 62.3906 43.7419 62.3906 44.2812C62.3906 44.8206 62.8067 45.2578 63.3202 45.2578H75.0325C75.5459 45.2578 75.9621 44.8206 75.9621 44.2812C75.9621 43.7419 75.5459 43.3047 75.0325 43.3047Z" fill="white"/>
</g>
<defs>
<filter id="filter0_d_5889_5" x="0.90625" y="1" width="114.523" height="119" filterUnits="userSpaceOnUse" color-interpolation-filters="sRGB">
<feFlood flood-opacity="0" result="BackgroundImageFix"/>
<feColorMatrix in="SourceAlpha" type="matrix" values="0 0 0 0 0 0 0 0 0 0 0 0 0 0 0 0 0 0 127 0" result="hardAlpha"/>
<feOffset dy="4"/>
<feGaussianBlur stdDeviation="6.5"/>
<feColorMatrix type="matrix" values="0 0 0 0 0.117326 0 0 0 0 0.138241 0 0 0 0 0.258333 0 0 0 0.11 0"/>
<feBlend mode="multiply" in2="BackgroundImageFix" result="effect1_dropShadow_5889_5"/>
<feBlend mode="normal" in="SourceGraphic" in2="effect1_dropShadow_5889_5" result="shape"/>
</filter>
<clipPath id="clip0_5889_5">
<rect width="47.593" height="50" fill="white" transform="translate(35.8047 31)"/>
</clipPath>
</defs>
</svg>
