<svg width="115" height="120" viewBox="0 0 115 120" fill="none" xmlns="http://www.w3.org/2000/svg">
<rect x="4.22656" y="0.5" width="106.56" height="112" rx="53.28" stroke="#6C7188"/>
<g filter="url(#filter0_d_5889_3)">
<rect x="13.2422" y="10" width="88.5229" height="93" rx="44.2615" fill="#89C249"/>
</g>
<g clip-path="url(#clip0_5889_3)">
<path d="M46.3718 72.2541L56.5848 79.5696C56.8646 79.7689 57.2317 79.7689 57.5112 79.5696L67.7273 72.2545C70.5959 70.1995 72.9359 65.5632 72.9359 61.9187V46.569C72.9335 46.2397 72.7533 45.9402 72.4715 45.7959L57.4135 38.0275C57.1853 37.9101 56.9183 37.9101 56.6901 38.0275L41.6305 45.7724C41.3474 45.9162 41.1669 46.2157 41.1641 46.5458V61.9187C41.1641 65.5632 43.5037 70.1995 46.3718 72.2541ZM42.8039 47.083L57.0484 39.7603L71.2961 47.1057V61.9187C71.2961 64.9546 69.1938 69.119 66.8037 70.8308L57.0532 77.8153L47.2974 70.8308C44.9077 69.119 42.8039 64.9546 42.8039 61.9187V47.083Z" fill="white"/>
<path d="M44.4667 75.1759L56.5805 83.8503C56.8612 84.0501 57.2291 84.0501 57.5097 83.8503L69.6307 75.1763C73.372 72.4967 76.3174 66.673 76.3174 61.9186V44.3658C76.3118 44.0347 76.1288 43.7357 75.845 43.5923L57.4184 34.088C57.1894 33.9707 56.9216 33.9707 56.6926 34.088L38.2565 43.5662C37.9714 43.7088 37.7877 44.0083 37.7812 44.3397V61.9186C37.7812 66.673 40.7258 72.4967 44.4667 75.1759ZM39.4211 44.8768L57.0497 35.8209L74.678 44.902V61.9186C74.678 66.1624 72.0481 71.3606 68.7079 73.753L57.0561 82.096L45.3943 73.7526C42.055 71.361 39.4211 66.1624 39.4211 61.9186V44.8768Z" fill="white"/>
<path d="M54.1634 66.9352C54.3175 67.0963 54.5269 67.1854 54.7443 67.1829H54.7463C54.9625 67.1858 55.1715 67.0975 55.326 66.9385L66.9754 54.7033C67.1296 54.5422 67.216 54.3235 67.216 54.0951C67.216 53.8667 67.1296 53.648 66.9754 53.4869L64.6566 51.0517C64.3363 50.7152 63.8171 50.7152 63.4968 51.0517L54.7603 60.2304L50.6239 55.8419C50.3052 55.5037 49.786 55.5012 49.4641 55.836L47.1336 58.2603C46.9791 58.4214 46.8918 58.6401 46.8906 58.8685C46.8898 59.0956 46.9751 59.3139 47.128 59.475L54.1634 66.9352ZM50.0354 57.6669L54.175 62.0701C54.3271 62.2362 54.5361 62.3326 54.7555 62.3372H54.7575C54.9765 62.333 55.1847 62.2379 55.3372 62.073L64.0769 52.8859L65.2363 54.101L54.7491 65.1173L48.8704 58.8803L50.0354 57.6669Z" fill="white"/>
</g>
<defs>
<filter id="filter0_d_5889_3" x="0.242188" y="1" width="114.523" height="119" filterUnits="userSpaceOnUse" color-interpolation-filters="sRGB">
<feFlood flood-opacity="0" result="BackgroundImageFix"/>
<feColorMatrix in="SourceAlpha" type="matrix" values="0 0 0 0 0 0 0 0 0 0 0 0 0 0 0 0 0 0 127 0" result="hardAlpha"/>
<feOffset dy="4"/>
<feGaussianBlur stdDeviation="6.5"/>
<feColorMatrix type="matrix" values="0 0 0 0 0.117326 0 0 0 0 0.138241 0 0 0 0 0.258333 0 0 0 0.11 0"/>
<feBlend mode="multiply" in2="BackgroundImageFix" result="effect1_dropShadow_5889_3"/>
<feBlend mode="normal" in="SourceGraphic" in2="effect1_dropShadow_5889_3" result="shape"/>
</filter>
<clipPath id="clip0_5889_3">
<rect width="47.593" height="50" fill="white" transform="translate(33.2344 34)"/>
</clipPath>
</defs>
</svg>
